<mxfile host="app.diagrams.net" modified="2023-03-01T19:43:19.342Z" agent="5.0 (Macintosh; Intel Mac OS X 10_15_7) AppleWebKit/537.36 (KHTML, like Gecko) Chrome/108.0.0.0 Safari/537.36" etag="eHWV_csKjVMZxPA-iQSj" version="20.8.23" type="github">
  <diagram name="Страница 1" id="RV35ipoRJLQ8wCQzoW5x">
    <mxGraphModel dx="1736" dy="617" grid="1" gridSize="10" guides="1" tooltips="1" connect="1" arrows="1" fold="1" page="1" pageScale="1" pageWidth="827" pageHeight="1169" math="0" shadow="0">
      <root>
        <mxCell id="0" />
        <mxCell id="1" parent="0" />
        <mxCell id="LOLeLqk4cq47guXvlNfQ-6" style="edgeStyle=orthogonalEdgeStyle;rounded=0;sketch=1;hachureGap=4;jiggle=2;curveFitting=1;orthogonalLoop=1;jettySize=auto;html=1;entryX=0.5;entryY=0;entryDx=0;entryDy=0;fontFamily=Verdana;fontSize=16;labelBackgroundColor=none;strokeColor=#457B9D;fontColor=default;" edge="1" parent="1" source="LOLeLqk4cq47guXvlNfQ-1" target="LOLeLqk4cq47guXvlNfQ-3">
          <mxGeometry relative="1" as="geometry" />
        </mxCell>
        <mxCell id="LOLeLqk4cq47guXvlNfQ-7" style="edgeStyle=orthogonalEdgeStyle;rounded=0;sketch=1;hachureGap=4;jiggle=2;curveFitting=1;orthogonalLoop=1;jettySize=auto;html=1;entryX=0.5;entryY=0;entryDx=0;entryDy=0;fontFamily=Verdana;fontSize=16;labelBackgroundColor=none;strokeColor=#457B9D;fontColor=default;" edge="1" parent="1" source="LOLeLqk4cq47guXvlNfQ-1" target="LOLeLqk4cq47guXvlNfQ-2">
          <mxGeometry relative="1" as="geometry" />
        </mxCell>
        <mxCell id="LOLeLqk4cq47guXvlNfQ-1" value="&lt;font face=&quot;Verdana&quot;&gt;К0: Увеличение прибыли&lt;/font&gt;" style="rounded=1;whiteSpace=wrap;html=1;sketch=1;hachureGap=4;jiggle=2;curveFitting=1;fontFamily=Architects Daughter;fontSource=https%3A%2F%2Ffonts.googleapis.com%2Fcss%3Ffamily%3DArchitects%2BDaughter;fontSize=20;labelBackgroundColor=none;fillColor=#A8DADC;strokeColor=#457B9D;fontColor=#1D3557;" vertex="1" parent="1">
          <mxGeometry x="280" y="120" width="320" height="120" as="geometry" />
        </mxCell>
        <mxCell id="LOLeLqk4cq47guXvlNfQ-8" style="edgeStyle=orthogonalEdgeStyle;rounded=0;sketch=1;hachureGap=4;jiggle=2;curveFitting=1;orthogonalLoop=1;jettySize=auto;html=1;entryX=0.5;entryY=0;entryDx=0;entryDy=0;strokeColor=#457B9D;fontFamily=Architects Daughter;fontSource=https%3A%2F%2Ffonts.googleapis.com%2Fcss%3Ffamily%3DArchitects%2BDaughter;fontSize=16;fontColor=#1D3557;fillColor=#A8DADC;" edge="1" parent="1" source="LOLeLqk4cq47guXvlNfQ-2" target="LOLeLqk4cq47guXvlNfQ-4">
          <mxGeometry relative="1" as="geometry" />
        </mxCell>
        <mxCell id="LOLeLqk4cq47guXvlNfQ-9" style="edgeStyle=orthogonalEdgeStyle;rounded=0;sketch=1;hachureGap=4;jiggle=2;curveFitting=1;orthogonalLoop=1;jettySize=auto;html=1;entryX=0.5;entryY=0;entryDx=0;entryDy=0;strokeColor=#457B9D;fontFamily=Architects Daughter;fontSource=https%3A%2F%2Ffonts.googleapis.com%2Fcss%3Ffamily%3DArchitects%2BDaughter;fontSize=16;fontColor=#1D3557;fillColor=#A8DADC;" edge="1" parent="1" source="LOLeLqk4cq47guXvlNfQ-2" target="LOLeLqk4cq47guXvlNfQ-5">
          <mxGeometry relative="1" as="geometry" />
        </mxCell>
        <mxCell id="LOLeLqk4cq47guXvlNfQ-2" value="&lt;font face=&quot;Verdana&quot;&gt;К1: Рост доходов&lt;/font&gt;" style="rounded=1;whiteSpace=wrap;html=1;sketch=1;hachureGap=4;jiggle=2;curveFitting=1;fontFamily=Architects Daughter;fontSource=https%3A%2F%2Ffonts.googleapis.com%2Fcss%3Ffamily%3DArchitects%2BDaughter;fontSize=20;labelBackgroundColor=none;fillColor=#A8DADC;strokeColor=#457B9D;fontColor=#1D3557;" vertex="1" parent="1">
          <mxGeometry x="80" y="320" width="320" height="120" as="geometry" />
        </mxCell>
        <mxCell id="LOLeLqk4cq47guXvlNfQ-3" value="&lt;font face=&quot;Verdana&quot;&gt;К2: Снижение затрат&lt;/font&gt;" style="rounded=1;whiteSpace=wrap;html=1;sketch=1;hachureGap=4;jiggle=2;curveFitting=1;fontFamily=Architects Daughter;fontSource=https%3A%2F%2Ffonts.googleapis.com%2Fcss%3Ffamily%3DArchitects%2BDaughter;fontSize=20;labelBackgroundColor=none;fillColor=#A8DADC;strokeColor=#457B9D;fontColor=#1D3557;" vertex="1" parent="1">
          <mxGeometry x="480" y="320" width="320" height="120" as="geometry" />
        </mxCell>
        <mxCell id="LOLeLqk4cq47guXvlNfQ-4" value="&lt;font face=&quot;Verdana&quot;&gt;К11: Создание новых источников доходов&lt;/font&gt;" style="rounded=1;whiteSpace=wrap;html=1;sketch=1;hachureGap=4;jiggle=2;curveFitting=1;fontFamily=Architects Daughter;fontSource=https%3A%2F%2Ffonts.googleapis.com%2Fcss%3Ffamily%3DArchitects%2BDaughter;fontSize=20;labelBackgroundColor=none;fillColor=#A8DADC;strokeColor=#457B9D;fontColor=#1D3557;" vertex="1" parent="1">
          <mxGeometry x="-120" y="520" width="320" height="120" as="geometry" />
        </mxCell>
        <mxCell id="LOLeLqk4cq47guXvlNfQ-5" value="&lt;font face=&quot;Verdana&quot;&gt;К12: Увеличение потребительской ценности товаров или услуг&lt;/font&gt;" style="rounded=1;whiteSpace=wrap;html=1;sketch=1;hachureGap=4;jiggle=2;curveFitting=1;fontFamily=Architects Daughter;fontSource=https%3A%2F%2Ffonts.googleapis.com%2Fcss%3Ffamily%3DArchitects%2BDaughter;fontSize=20;labelBackgroundColor=none;fillColor=#A8DADC;strokeColor=#457B9D;fontColor=#1D3557;" vertex="1" parent="1">
          <mxGeometry x="280" y="520" width="320" height="120" as="geometry" />
        </mxCell>
      </root>
    </mxGraphModel>
  </diagram>
</mxfile>
